<?xml version="1.0" encoding="UTF-8" standalone="no"?>
<svg width="56px" height="85px" viewBox="0 0 56 85" version="1.1" xmlns="http://www.w3.org/2000/svg" xmlns:xlink="http://www.w3.org/1999/xlink">
    <!-- Generator: Sketch 49.3 (51167) - http://www.bohemiancoding.com/sketch -->
    <title>Group</title>
    <desc>Created with Sketch.</desc>
    <defs>
        <polygon id="path-1" points="0 0.0579505963 55.9885279 0.0579505963 55.9885279 84.8551959 0 84.8551959"></polygon>
    </defs>
    <g id="Page-1" stroke="none" stroke-width="1" fill="none" fill-rule="evenodd">
        <g id="Mainpage-Copy-6" transform="translate(-793.000000, -1685.000000)">
            <g id="Group-27" transform="translate(768.000000, 1685.000000)">
                <g id="Group" transform="translate(25.000000, 0.000000)">
                    <path d="M31.964356,51.7211099 L31.1279366,51.7211099 L31.1279366,50.7074813 L31.964356,50.7074813 C32.2409187,50.7074813 32.4656348,50.9348237 32.4656348,51.2142956 C32.4656348,51.4950707 32.2409187,51.7211099 31.964356,51.7211099" id="Fill-1" fill="#58AAF4"></path>
                    <path d="M50.8225923,48.0156022 L50.8225923,46.5949293 L51.8251499,46.5949293 L51.8251499,48.0156022 C51.8251499,48.2963773 51.6002905,48.5224165 51.3238711,48.5224165 C51.0473084,48.5224165 50.8225923,48.2963773 50.8225923,48.0156022" id="Fill-3" fill="#58AAF4"></path>
                    <path d="M55.9885279,46.5949872 L55.9885279,70.5138714 C55.9885279,71.3955835 55.2795765,72.1138118 54.4073514,72.1138118 L46.8794332,72.1138118 L46.8794332,84.4351917 C46.8794332,84.6742632 46.7148706,84.879885 46.4842824,84.9304216 C46.2536941,84.9811031 46.0200982,84.8625085 45.9228501,84.6438543 L42.180446,76.2856175 L38.5839857,84.6380622 C38.5039243,84.8248595 38.3205995,84.942006 38.1245279,84.942006 C38.0914435,84.942006 38.0570701,84.9392547 38.0226967,84.9318697 C37.7893872,84.8826363 37.6232491,84.6755664 37.6232491,84.4351917 L37.6232491,72.1138118 L31.1279652,72.1138118 L31.1279652,71.1001831 L37.6232491,71.1001831 L37.6232491,65.9668782 C35.5893463,64.5175341 34.2575202,62.1268186 34.2575202,59.4260775 C34.2575202,55.0140417 37.8078629,51.4243484 42.1718527,51.4243484 C46.5358425,51.4243484 50.0863284,55.0140417 50.0863284,59.4260775 C50.0863284,62.0558646 48.8231059,64.3928578 46.8794332,65.852483 L46.8794332,71.1001831 L54.4073514,71.1001831 C54.7267376,71.1001831 54.9859703,70.8366397 54.9859703,70.5138714 L54.9859703,46.5949872 L55.9885279,46.5949872 Z" id="Fill-5" fill="#8BC5FF"></path>
                    <g id="Group-9" transform="translate(0.000000, 0.086882)">
                        <mask id="mask-2" fill="white">
                            <use xlink:href="#path-1"></use>
                        </mask>
                        <g id="Clip-8"></g>
                        <path d="M54.9859703,70.4269455 C54.9859703,70.7497138 54.7267376,71.013402 54.4073514,71.013402 L46.8794332,71.013402 L46.8794332,65.7657019 C48.8231059,64.3060767 50.0863284,61.9689387 50.0863284,59.3392964 C50.0863284,54.9271158 46.5358425,51.3374225 42.1718527,51.3374225 C37.8078629,51.3374225 34.2575202,54.9271158 34.2575202,59.3392964 C34.2575202,62.0398927 35.5893463,64.4306082 37.6232491,65.8800971 L37.6232491,71.013402 L12.4390036,71.013402 C12.1194742,71.013402 11.8588092,70.7497138 11.8588092,70.4269455 L11.8588092,16.5032061 C11.8588092,16.1804378 12.1194742,15.9181976 12.4390036,15.9181976 L54.4073514,15.9181976 C54.7267376,15.9181976 54.9859703,16.1804378 54.9859703,16.5032061 L54.9859703,70.4269455 Z M42.1718527,66.3260937 C38.3607018,66.3260937 35.2600777,63.1909404 35.2600777,59.3392964 C35.2600777,55.4859148 38.3607018,52.3510511 42.1718527,52.3510511 C45.9830036,52.3510511 49.0837708,55.4859148 49.0837708,59.3392964 C49.0837708,63.1909404 45.9830036,66.3260937 42.1718527,66.3260937 Z M45.8768757,81.9996882 L42.6287325,74.7406593 C42.5469524,74.5596542 42.3679243,74.4422181 42.1718527,74.4422181 L42.167556,74.4422181 C41.969909,74.4436661 41.7908808,74.5638535 41.7121084,74.7478995 L38.6258066,81.9142538 L38.6258066,71.5202164 L38.6258066,71.5187683 L38.6258066,66.4882743 C39.6926711,67.0327376 40.8971724,67.3397223 42.1718527,67.3397223 C43.5095509,67.3397223 44.7714844,67.0008807 45.8768757,66.4055911 L45.8768757,81.9996882 Z M10.8562517,16.5032061 L10.8562517,18.0308893 L10.2776327,18.0308893 C10.0012133,18.0308893 9.77635396,18.2569284 9.77635396,18.5377036 C9.77635396,18.8173203 10.0012133,19.0445179 10.2776327,19.0445179 L10.8562517,19.0445179 L10.8562517,23.944833 L10.2776327,23.944833 C10.0012133,23.944833 9.77635396,24.1720307 9.77635396,24.4516474 C9.77635396,24.7324225 10.0012133,24.9584617 10.2776327,24.9584617 L10.8562517,24.9584617 L10.8562517,29.8600801 L10.2776327,29.8600801 C10.0012133,29.8600801 9.77635396,30.0874225 9.77635396,30.3668944 C9.77635396,30.6462215 10.0012133,30.8737087 10.2776327,30.8737087 L10.8562517,30.8737087 L10.8562517,35.7751823 L10.2776327,35.7751823 C10.0012133,35.7751823 9.77635396,36.0012215 9.77635396,36.2819966 C9.77635396,36.5616133 10.0012133,36.7888109 10.2776327,36.7888109 L10.8562517,36.7888109 L10.8562517,41.6891261 L10.2776327,41.6891261 C10.0012133,41.6891261 9.77635396,41.9163237 9.77635396,42.1959404 C9.77635396,42.4768603 10.0012133,42.7027547 10.2776327,42.7027547 L10.8562517,42.7027547 L10.8562517,50.8710085 L5.74464041,50.8710085 C5.42525422,50.8710085 5.16587826,50.6090579 5.16587826,50.286 L5.16587826,6.95062521 C5.16587826,6.62756729 5.42525422,6.3656167 5.74464041,6.3656167 L39.3861749,6.3656167 C39.7055611,6.3656167 39.9647939,6.62756729 39.9647939,6.95062521 L39.9647939,14.904569 L12.4390036,14.904569 C11.5666353,14.904569 10.8562517,15.621494 10.8562517,16.5032061 Z M10.8562517,56.1651908 L1.58116215,56.1651908 C1.26177596,56.1651908 1.00254322,55.9029506 1.00254322,55.5816303 L1.00254322,1.65658773 C1.00254322,1.33367462 1.26177596,1.07157922 1.58116215,1.07157922 L43.5510854,1.07157922 C43.8704716,1.07157922 44.1297043,1.33367462 44.1297043,1.65658773 L44.1297043,14.904569 L40.9673514,14.904569 L40.9673514,6.95062521 C40.9673514,6.06876831 40.2584,5.35198807 39.3861749,5.35198807 L5.74464041,5.35198807 C4.87255857,5.35198807 4.16332072,6.06876831 4.16332072,6.95062521 L4.16332072,50.286 C4.16332072,51.1680017 4.87255857,51.8846371 5.74464041,51.8846371 L10.8562517,51.8846371 L10.8562517,56.1651908 Z M54.4073514,14.904569 L45.1322619,14.904569 L45.1322619,1.65658773 C45.1322619,0.774586031 44.4233105,0.0579505963 43.5510854,0.0579505963 L1.58116215,0.0579505963 C0.708937084,0.0579505963 -1.43222506e-05,0.774586031 -1.43222506e-05,1.65658773 L-1.43222506e-05,55.5816303 C-1.43222506e-05,56.4620392 0.708937084,57.1788194 1.58116215,57.1788194 L10.8562517,57.1788194 L10.8562517,70.4269455 C10.8562517,71.3088024 11.5666353,72.0270307 12.4390036,72.0270307 L37.6232491,72.0270307 L37.6232491,84.3484106 C37.6232491,84.5887853 37.7893872,84.7958552 38.0226967,84.8449438 C38.0570701,84.8523288 38.0914435,84.8552249 38.1245279,84.8552249 C38.3205995,84.8552249 38.5039243,84.7379336 38.5839857,84.5511363 L42.180446,76.1986917 L45.9228501,84.5569284 C46.0200982,84.7755826 46.2536941,84.8941772 46.4842824,84.8436405 C46.7148706,84.7929591 46.8794332,84.5873373 46.8794332,84.3484106 L46.8794332,72.0270307 L54.4073514,72.0270307 C55.2795765,72.0270307 55.9885279,71.3088024 55.9885279,70.4269455 L55.9885279,16.5032061 C55.9885279,15.621494 55.2795765,14.904569 54.4073514,14.904569 Z" id="Fill-7" fill="#00276B" mask="url(#mask-2)"></path>
                    </g>
                    <path d="M51.8251499,21.8842564 L51.8251499,48.0156022 C51.8251499,48.2963773 51.6002905,48.5224165 51.3238711,48.5224165 C51.0473084,48.5224165 50.8225923,48.2963773 50.8225923,48.0156022 L50.8225923,21.8842564 C50.8225923,21.5613433 50.5632164,21.2992479 50.2438302,21.2992479 L16.6022957,21.2992479 C16.2830527,21.2992479 16.0236767,21.5613433 16.0236767,21.8842564 L16.0236767,65.219776 C16.0236767,65.5426891 16.2830527,65.8047845 16.6022957,65.8047845 L29.7300706,65.8047845 C30.0080655,65.8047845 30.2313494,66.0321269 30.2313494,66.3115988 C30.2313494,66.5909259 30.0080655,66.8184131 29.7300706,66.8184131 L16.6022957,66.8184131 C15.7300706,66.8184131 15.0211192,66.1014881 15.0211192,65.219776 L15.0211192,21.8842564 C15.0211192,21.0023995 15.7300706,20.2856193 16.6022957,20.2856193 L50.2438302,20.2856193 C51.114623,20.2856193 51.8251499,21.0023995 51.8251499,21.8842564" id="Fill-10" fill="#00276B"></path>
                    <path d="M39.6471836,27.1712998 C39.9240327,27.1712998 40.1484624,26.9443918 40.1484624,26.6644855 C40.1484624,26.3845792 39.9240327,26.1576712 39.6471836,26.1576712 L27.3057003,26.1576712 C27.0288512,26.1576712 26.8044215,26.3845792 26.8044215,26.6644855 C26.8044215,26.9443918 27.0288512,27.1712998 27.3057003,27.1712998 L39.6471836,27.1712998 Z" id="Fill-12" fill="#00276B"></path>
                    <path d="M46.0173627,32.963753 L21.1350302,32.963753 C20.8581811,32.963753 20.6337514,33.190661 20.6337514,33.4705673 C20.6337514,33.7504736 20.8581811,33.9773816 21.1350302,33.9773816 L46.0173627,33.9773816 C46.2942118,33.9773816 46.5186414,33.7504736 46.5186414,33.4705673 C46.5186414,33.190661 46.2942118,32.963753 46.0173627,32.963753" id="Fill-14" fill="#00276B"></path>
                    <path d="M46.0173627,38.8786525 L21.1350302,38.8786525 C20.8581811,38.8786525 20.6337514,39.1055605 20.6337514,39.3854668 C20.6337514,39.6653731 20.8581811,39.8922811 21.1350302,39.8922811 L46.0173627,39.8922811 C46.2942118,39.8922811 46.5186414,39.6653731 46.5186414,39.3854668 C46.5186414,39.1055605 46.2942118,38.8786525 46.0173627,38.8786525" id="Fill-16" fill="#00276B"></path>
                    <path d="M46.0173627,44.7934216 L21.1350302,44.7934216 C20.8581811,44.7934216 20.6337514,45.0203296 20.6337514,45.3002359 C20.6337514,45.5801422 20.8581811,45.8070503 21.1350302,45.8070503 L46.0173627,45.8070503 C46.2942118,45.8070503 46.5186414,45.5801422 46.5186414,45.3002359 C46.5186414,45.0203296 46.2942118,44.7934216 46.0173627,44.7934216" id="Fill-18" fill="#00276B"></path>
                    <path d="M32.4656348,51.2142956 C32.4656348,51.4950707 32.2409187,51.7211099 31.964356,51.7211099 L21.1353023,51.7211099 C20.8574506,51.7211099 20.6340235,51.4950707 20.6340235,51.2142956 C20.6340235,50.9348237 20.8574506,50.7074813 21.1353023,50.7074813 L31.964356,50.7074813 C32.2409187,50.7074813 32.4656348,50.9348237 32.4656348,51.2142956" id="Fill-20" fill="#00276B"></path>
                    <path d="M21.1349729,56.6230903 C20.8581238,56.6230903 20.6336941,56.8499983 20.6336941,57.1299046 C20.6336941,57.4098109 20.8581238,57.6367189 21.1349729,57.6367189 L29.2084256,57.6367189 C29.4852747,57.6367189 29.7097043,57.4098109 29.7097043,57.1299046 C29.7097043,56.8499983 29.4852747,56.6230903 29.2084256,56.6230903 L21.1349729,56.6230903 Z" id="Fill-22" fill="#00276B"></path>
                    <path d="M29.2084399,8.03410733 L16.8668133,8.03410733 C16.5899642,8.03410733 16.3655345,8.26101533 16.3655345,8.54092164 C16.3655345,8.82082794 16.5899642,9.04773595 16.8668133,9.04773595 L29.2084399,9.04773595 C29.485289,9.04773595 29.7097187,8.82082794 29.7097187,8.54092164 C29.7097187,8.26101533 29.485289,8.03410733 29.2084399,8.03410733" id="Fill-24" fill="#00276B"></path>
                </g>
            </g>
        </g>
    </g>
</svg>